<svg xmlns="http://www.w3.org/2000/svg" viewBox="0 0 72 72" fill="currentColor" aria-label="&amp;you glyph">
  
  <rect width="72" height="72" rx="16" fill="currentColor" opacity="0"></rect>
  <path d="M49.5 53.6c-4.2 4.6-9.7 7.5-16.7 7.5-10.6 0-18.5-6.9-18.5-17.2 0-7 3.7-11.4 9.3-15.2-3.1-3.5-4.6-7.5-4.6-11.8C19 8.7 26.3 2.3 36.9 2.3c10 0 16.3 6 16.3 13.6 0 6.5-4.3 10.9-10.1 14.6l9.7 11.4c1.2-2.8 2-5.9 2.3-9.4h11.5c-.5 6.3-2.6 11.9-5.7 16.3L69.8 61H55.9l-6.4-7.4zM28 42.8c0 4.7 3.5 7.8 8.8 7.8 3.8 0 7.1-1.7 9.5-4.3L34.9 33.1c-4.7 2.7-6.9 5.6-6.9 9.7zm8.8-22.3c2.8-1.8 4.9-3.5 4.9-6.3 0-2.2-1.7-3.9-4.5-3.9-3 0-5 1.8-5 4.6 0 2 .7 3.8 2.3 5.6h.1l2.2 0z"></path>
</svg>